Coordinates
version=1
nRows=32
nColumns=12
inDegrees=yes

Units are S.I. units (second, meters, Newtons, ...)
Angles are in degrees

endheader
time	SC_y	SC_z	SC_x	AC_y	AC_z	AC_x	GH_y	GH_z	GH_yy	EL_x	PS_y
       0.0              -50.28         -4.801          32.95          50.08         -17.53          -11.8         -140.7          8.339          40.71          75.85          118.4
   0.02241              -50.28         -4.798          32.96          50.08         -17.52          -11.8         -140.7          8.337          40.69          75.85          118.4
   0.04481              -50.28         -4.795          32.96          50.08         -17.52          -11.8         -140.7          8.334          40.68          75.85          118.4
   0.06722              -50.27         -4.791          32.96          50.08         -17.52         -11.79         -140.7          8.331          40.66          75.85          118.4
   0.08963              -50.27         -4.788          32.96          50.08         -17.52         -11.79         -140.7          8.328          40.64          75.84          118.4
     0.112              -50.27         -4.784          32.96          50.08         -17.52         -11.78         -140.7          8.324          40.62          75.84          118.4
    0.1344              -50.27         -4.779          32.96          50.08         -17.52         -11.78         -140.7           8.32           40.6          75.84          118.4
    0.1568              -50.26         -4.775          32.97          50.08         -17.51         -11.78         -140.7          8.316          40.58          75.84          118.4
    0.1793              -50.26          -4.77          32.97          50.08         -17.51         -11.77         -140.7          8.312          40.56          75.83          118.3
    0.2017              -50.26         -4.765          32.97          50.08         -17.51         -11.77         -140.7          8.308          40.53          75.83          118.3
    0.2241              -50.25         -4.759          32.97          50.08         -17.51         -11.76         -140.7          8.303           40.5          75.83          118.3
    0.2465              -50.25         -4.753          32.98          50.09          -17.5         -11.76         -140.7          8.298          40.47          75.82          118.3
    0.2689              -50.25         -4.746          32.98          50.09          -17.5         -11.75         -140.7          8.292          40.44          75.82          118.3
    0.2913              -50.24         -4.739          32.98          50.09          -17.5         -11.74         -140.7          8.286          40.41          75.81          118.3
    0.3137              -50.24         -4.732          32.99          50.09         -17.49         -11.74         -140.7          8.279          40.37          75.81          118.3
    0.3361              -50.23         -4.723          32.99          50.09         -17.49         -11.73         -140.7          8.272          40.33           75.8          118.3
    0.3585              -50.23         -4.714          32.99          50.09         -17.49         -11.72         -140.7          8.264          40.29           75.8          118.3
    0.3809              -50.22         -4.704           33.0          50.09         -17.48         -11.71         -140.7          8.256          40.24          75.79          118.2
    0.4033              -50.22         -4.694           33.0           50.1         -17.48          -11.7         -140.7          8.246          40.19          75.79          118.2
    0.4257              -50.21         -4.682          33.01           50.1         -17.47         -11.69         -140.7          8.236          40.13          75.78          118.2
    0.4481               -50.2         -4.669          33.01           50.1         -17.46         -11.68         -140.7          8.225          40.07          75.77          118.2
    0.4705              -50.19         -4.655          33.02           50.1         -17.46         -11.66         -140.7          8.213           40.0          75.76          118.2
    0.4929              -50.18         -4.639          33.03          50.11         -17.45         -11.65         -140.7          8.199          39.93          75.75          118.1
    0.5153              -50.17         -4.622          33.04          50.11         -17.44         -11.63         -140.6          8.184          39.84          75.74          118.1
    0.5378              -50.16         -4.602          33.04          50.11         -17.43         -11.61         -140.6          8.168          39.75          75.73          118.1
    0.5602              -50.15         -4.581          33.05          50.12         -17.42         -11.59         -140.6          8.149          39.65          75.72          118.0
    0.5826              -50.13         -4.557          33.06          50.12         -17.41         -11.57         -140.6          8.128          39.53           75.7          118.0
     0.605              -50.12         -4.529          33.08          50.12          -17.4         -11.54         -140.6          8.105           39.4          75.69          117.9
    0.6274               -50.1         -4.499          33.09          50.13         -17.39         -11.51         -140.6          8.078          39.25          75.67          117.9
    0.6498              -50.08         -4.464          33.11          50.14         -17.37         -11.48         -140.6          8.048          39.09          75.65          117.8
    0.6722              -50.05         -4.424          33.12          50.14         -17.35         -11.44         -140.5          8.014           38.9          75.62          117.8
    0.6946              -50.03         -4.378          33.14          50.15         -17.33          -11.4         -140.5          7.974          38.68          75.59          117.7
